HIERARCHY
ROOT hip
{
  OFFSET 0 0 0
  CHANNELS 6 Xposition Yposition Zposition Zrotation Yrotation Xrotation
  JOINT abdomen
  {
    OFFSET 0 20.6881 -0.73152
    CHANNELS 3 Zrotation Xrotation Yrotation
    JOINT chest
    {
      OFFSET 0 11.7043 -0.48768
      CHANNELS 3 Zrotation Xrotation Yrotation
      JOINT neck
      {
        OFFSET 0 22.1894 -2.19456
        CHANNELS 3 Zrotation Xrotation Yrotation
        JOINT head
        {
          OFFSET -0.24384 7.07133 1.2192
          CHANNELS 3 Zrotation Xrotation Yrotation
          JOINT leftEye
          {
            OFFSET 4.14528 8.04674 8.04672
            CHANNELS 3 Zrotation Xrotation Yrotation
            End Site
            {
              OFFSET 1 0 0
            }
          }
          JOINT rightEye
          {
            OFFSET -3.6576 8.04674 8.04672
            CHANNELS 3 Zrotation Xrotation Yrotation
            End Site
            {
              OFFSET 1 0 0
            }
          }
        }
      }
      JOINT rCollar
      {
        OFFSET -2.68224 19.2634 -4.8768
        CHANNELS 3 Zrotation Xrotation Yrotation
        JOINT rShldr
        {
          OFFSET -8.77824 -1.95073 1.46304
          CHANNELS 3 Zrotation Xrotation Yrotation
          JOINT rForeArm
          {
            OFFSET -28.1742 -1.7115 0.48768
            CHANNELS 3 Zrotation Xrotation Yrotation
            JOINT rHand
            {
              OFFSET -22.5879 0.773209 7.07136
              CHANNELS 3 Zrotation Xrotation Yrotation
              JOINT rThumb1
              {
                OFFSET -1.2192 -0.487915 3.41376
                CHANNELS 3 Zrotation Xrotation Yrotation
                JOINT rThumb2
                {
                  OFFSET -3.37035 -0.52449 3.41376
                  CHANNELS 3 Zrotation Xrotation Yrotation
                  End Site
                  {
                    OFFSET -1.78271 -1.18214 1.43049
                  }
                }
              }
              JOINT rIndex1
              {
                OFFSET -7.75947 0.938293 5.60832
                CHANNELS 3 Zrotation Xrotation Yrotation
                JOINT rIndex2
                {
                  OFFSET -2.54057 -0.884171 1.56538
                  CHANNELS 3 Zrotation Xrotation Yrotation
                  End Site
                  {
                    OFFSET -1.62519 -0.234802 1.16502
                  }
                }
              }
              JOINT rMid1
              {
                OFFSET -8.24714 1.18213 3.41376
                CHANNELS 3 Zrotation Xrotation Yrotation
                JOINT rMid2
                {
                  OFFSET -3.10165 -0.590103 1.0647
                  CHANNELS 3 Zrotation Xrotation Yrotation
                  End Site
                  {
                    OFFSET -2.48547 -0.328903 0.83742
                  }
                }
              }
              JOINT rRing1
              {
                OFFSET -8.82822 0.546677 1.51678
                CHANNELS 3 Zrotation Xrotation Yrotation
                JOINT rRing2
                {
                  OFFSET -2.60934 -0.819778 -0.0198488
                  CHANNELS 3 Zrotation Xrotation Yrotation
                  End Site
                  {
                    OFFSET -2.33842 -0.294052 0.168128
                  }
                }
              }
              JOINT rPinky1
              {
                OFFSET -8.27202 -0.0477905 -0.4584
                CHANNELS 3 Zrotation Xrotation Yrotation
                JOINT rPinky2
                {
                  OFFSET -1.82734 -0.647385 -0.700984
                  CHANNELS 3 Zrotation Xrotation Yrotation
                  End Site
                  {
                    OFFSET -1.69225 -0.51767 -0.607171
                  }
                }
              }
            }
          }
        }
      }
      JOINT lCollar
      {
        OFFSET 2.68224 19.2634 -4.8768
        CHANNELS 3 Zrotation Xrotation Yrotation
        JOINT lShldr
        {
          OFFSET 8.77824 -1.95073 1.46304
          CHANNELS 3 Zrotation Xrotation Yrotation
          JOINT lForeArm
          {
            OFFSET 28.1742 -1.7115 0.48768
            CHANNELS 3 Zrotation Xrotation Yrotation
            JOINT lHand
            {
              OFFSET 22.5879 0.773209 7.07136
              CHANNELS 3 Zrotation Xrotation Yrotation
              JOINT lThumb1
              {
                OFFSET 1.2192 -0.487915 3.41376
                CHANNELS 3 Zrotation Xrotation Yrotation
                JOINT lThumb2
                {
                  OFFSET 3.37035 -0.52449 3.41376
                  CHANNELS 3 Zrotation Xrotation Yrotation
                  End Site
                  {
                    OFFSET 1.78271 -1.18214 1.43049
                  }
                }
              }
              JOINT lIndex1
              {
                OFFSET 7.75947 0.938293 5.60832
                CHANNELS 3 Zrotation Xrotation Yrotation
                JOINT lIndex2
                {
                  OFFSET 2.54057 -0.884171 1.56538
                  CHANNELS 3 Zrotation Xrotation Yrotation
                  End Site
                  {
                    OFFSET 1.62519 -0.234802 1.16502
                  }
                }
              }
              JOINT lMid1
              {
                OFFSET 8.24714 1.18213 3.41376
                CHANNELS 3 Zrotation Xrotation Yrotation
                JOINT lMid2
                {
                  OFFSET 3.10165 -0.590103 1.0647
                  CHANNELS 3 Zrotation Xrotation Yrotation
                  End Site
                  {
                    OFFSET 2.48547 -0.328903 0.83742
                  }
                }
              }
              JOINT lRing1
              {
                OFFSET 8.82822 0.546677 1.51678
                CHANNELS 3 Zrotation Xrotation Yrotation
                JOINT lRing2
                {
                  OFFSET 2.60934 -0.819778 -0.0198488
                  CHANNELS 3 Zrotation Xrotation Yrotation
                  End Site
                  {
                    OFFSET 2.33842 -0.294052 0.168128
                  }
                }
              }
              JOINT lPinky1
              {
                OFFSET 8.27202 -0.0477905 -0.4584
                CHANNELS 3 Zrotation Xrotation Yrotation
                JOINT lPinky2
                {
                  OFFSET 1.82734 -0.647385 -0.700984
                  CHANNELS 3 Zrotation Xrotation Yrotation
                  End Site
                  {
                    OFFSET 1.69225 -0.51767 -0.607171
                  }
                }
              }
            }
          }
        }
      }
    }
  }
  JOINT rButtock
  {
    OFFSET -8.77824 4.35084 1.2192
    CHANNELS 3 Zrotation Xrotation Yrotation
    JOINT rThigh
    {
      OFFSET 0 -1.70687 -2.19456
      CHANNELS 3 Zrotation Xrotation Yrotation
      JOINT rShin
      {
        OFFSET 0 -36.8199 0.73152
        CHANNELS 3 Zrotation Xrotation Yrotation
        JOINT rFoot
        {
          OFFSET 0.73152 -45.1104 -5.12064
          CHANNELS 3 Zrotation Xrotation Yrotation
          End Site
          {
            OFFSET -1.1221 -3.69964 12.103
          }
        }
      }
    }
  }
  JOINT lButtock
  {
    OFFSET 8.77824 4.35084 1.2192
    CHANNELS 3 Zrotation Xrotation Yrotation
    JOINT lThigh
    {
      OFFSET 0 -1.70687 -2.19456
      CHANNELS 3 Zrotation Xrotation Yrotation
      JOINT lShin
      {
        OFFSET 0 -36.8199 0.73152
        CHANNELS 3 Zrotation Xrotation Yrotation
        JOINT lFoot
        {
          OFFSET -0.73152 -45.1104 -5.12064
          CHANNELS 3 Zrotation Xrotation Yrotation
          End Site
          {
            OFFSET 1.1221 -3.69964 12.103
          }
        }
      }
    }
  }
}
MOTION
Frames:	8
Frame Time:	0.00833333
0.651519 83.4595 7.22618 -8.5368 3.2364 -0.1633 9.85711 3.1582 9.32562 -0.765476 -1.73808 2.69484 3.78786 -0.00458539 -1.02899 -6.58973 -3.60465 -3.26255 -0.0 0.0 0.0 -0.0 0.0 0.0 -1.52825e-14 2.66246e-14 9.00036e-14 78.9806 21.4864 -0.808957 -18.0007 -10.6875 34.022 -0.163932 -11.4633 -1.63313 6.68023e-11 -4.68804e-12 -4.18811e-11 1.16244e-10 -9.83269e-12 -7.28052e-11 6.68121e-11 -4.68821e-12 -4.18999e-11 7.73091 5.47488 0.417314 6.6807e-11 -4.6913e-12 -4.18874e-11 2.90554 0.965183 0.102902 6.68131e-11 -4.69144e-12 -4.18793e-11 10.2786 0.731801 0.0259123 6.67996e-11 -4.69004e-12 -4.18744e-11 2.22167 -0.733487 -0.20892 -1.53694e-14 2.6621e-14 8.99652e-14 -84.7859 24.5987 17.1228 16.8726 -9.5239 -31.5372 0.287276 -15.0804 2.17026 -2.25009e-11 -2.16154e-11 6.77297e-11 -4.00717e-11 -3.69599e-11 1.1658e-10 -2.25143e-11 -2.162e-11 6.77496e-11 -7.73091 5.47488 -0.417314 -2.25023e-11 -2.16167e-11 6.77265e-11 -2.90554 0.965183 -0.102902 -2.25066e-11 -2.16166e-11 6.77315e-11 -10.2786 0.731801 -0.0259123 -2.24991e-11 -2.16151e-11 6.77292e-11 -2.22167 -0.733487 0.20892 -2.03217e-16 0.0 -3.88251e-19 14.2491 11.0169 0.258988 -0.000863461 6.76804 0.18041 -3.50836 -5.55935 -18.932 2.03217e-16 0.0 3.88251e-19 10.1548 -34.3389 0.320524 0.127311 25.0029 -0.30071 3.78956 -8.37396 13.7985
0.73257 83.3957 7.53093 -8.5511 3.2068 -0.0459 9.83677 3.04536 9.41133 -0.758714 -1.71976 2.7159 3.72505 -0.0552288 -1.04801 -6.52428 -3.61226 -3.28467 -0.0 0.0 0.0 -0.0 0.0 0.0 -2.80011e-14 5.12249e-14 1.32894e-13 78.9952 21.4185 -0.788126 -17.944 -10.6266 33.895 -0.163119 -11.4352 -1.62902 -1.65544e-10 7.5257e-10 3.30582e-10 -2.90377e-10 1.30964e-09 5.71531e-10 -1.65533e-10 7.52568e-10 3.30563e-10 7.73091 5.47488 0.417314 -1.65537e-10 7.52568e-10 3.30577e-10 2.90554 0.965183 0.102902 -1.65533e-10 7.52568e-10 3.30586e-10 10.2786 0.731801 0.0259123 -1.65547e-10 7.52572e-10 3.3059e-10 2.22167 -0.733487 -0.20892 -2.80642e-14 5.12231e-14 1.32822e-13 -84.7935 24.432 17.1509 16.8049 -9.45708 -31.3908 0.281264 -14.9267 2.14708 1.1795e-10 -3.24028e-10 4.78412e-10 1.9743e-10 -5.64892e-10 8.29314e-10 1.1794e-10 -3.24031e-10 4.78428e-10 -7.73091 5.47488 -0.417314 1.17949e-10 -3.24029e-10 4.78405e-10 -2.90554 0.965183 -0.102902 1.17945e-10 -3.24028e-10 4.7841e-10 -10.2786 0.731801 -0.0259123 1.17952e-10 -3.24026e-10 4.78406e-10 -2.22167 -0.733487 0.20892 -2.03217e-16 0.0 -3.88251e-19 14.1902 10.9472 0.364449 -0.00179107 7.08298 0.184322 -3.58315 -5.71823 -18.9829 2.03217e-16 0.0 3.88251e-19 10.0505 -34.1626 0.147084 0.127451 25.0237 -0.298801 3.77204 -8.52097 13.5983
0.814465 83.3362 7.83788 -8.558 3.1678 0.0849 9.80012 2.92618 9.49575 -0.745767 -1.70835 2.73658 3.66797 -0.0914052 -1.0678 -6.46592 -3.644 -3.31064 -0.0 0.0 0.0 -0.0 0.0 0.0 -4.38609e-14 7.48623e-14 1.66599e-13 79.0162 21.3415 -0.777994 -17.8855 -10.5641 33.7642 -0.162187 -11.403 -1.62431 -3.32793e-10 1.38829e-09 6.87643e-10 -5.8431e-10 2.41845e-09 1.18963e-09 -3.3278e-10 1.38828e-09 6.87624e-10 7.73091 5.47488 0.417314 -3.32784e-10 1.38829e-09 6.87639e-10 2.90554 0.965183 0.102902 -3.32781e-10 1.38829e-09 6.87648e-10 10.2786 0.731801 0.0259123 -3.32796e-10 1.38829e-09 6.87652e-10 2.22167 -0.733487 -0.20892 -4.39016e-14 7.48623e-14 1.66481e-13 -84.7997 24.2642 17.1781 16.7353 -9.3888 -31.2409 0.27528 -14.7712 2.12368 3.01708e-10 -5.9509e-10 8.45858e-10 5.10233e-10 -1.03837e-09 1.46761e-09 3.01702e-10 -5.95091e-10 8.4587e-10 -7.73091 5.47488 -0.417314 3.01707e-10 -5.9509e-10 8.45847e-10 -2.90554 0.965183 -0.102902 3.01704e-10 -5.95089e-10 8.45853e-10 -10.2786 0.731801 -0.0259123 3.01711e-10 -5.95086e-10 8.45848e-10 -2.22167 -0.733487 0.20892 -2.03217e-16 0.0 -3.88251e-19 14.1224 10.9044 0.468886 -0.00256291 7.33681 0.187501 -3.64353 -5.84168 -19.0308 2.03217e-16 0.0 3.88251e-19 9.93954 -33.9921 -0.0163753 0.127469 25.0236 -0.297169 3.7523 -8.63962 13.4185
0.89547 83.292 8.14656 -8.5597 3.1247 0.2324 9.74109 2.79925 9.57313 -0.725847 -1.71798 2.75544 3.62477 -0.112281 -1.0861 -6.41573 -3.6743 -3.33659 -0.0 0.0 0.0 -0.0 0.0 0.0 -6.93645e-14 8.92533e-14 1.718e-13 79.0508 21.2531 -0.782653 -17.8235 -10.4981 33.6254 -0.160989 -11.3617 -1.61827 -2.14854e-10 1.37694e-09 8.65521e-10 -3.83e-10 2.4031e-09 1.49898e-09 -2.14842e-10 1.37694e-09 8.65502e-10 7.73091 5.47488 0.417314 -2.14846e-10 1.37694e-09 8.65518e-10 2.90554 0.965183 0.102902 -2.14842e-10 1.37694e-09 8.65528e-10 10.2786 0.731801 0.0259123 -2.14859e-10 1.37695e-09 8.65531e-10 2.22167 -0.733487 -0.20892 -6.93917e-14 8.92547e-14 1.71651e-13 -84.8036 24.0988 17.2148 16.6652 -9.32023 -31.0898 0.269867 -14.6286 2.10225 5.74158e-10 -6.65964e-10 9.45722e-10 9.79346e-10 -1.16312e-09 1.64337e-09 5.74152e-10 -6.65964e-10 9.45732e-10 -7.73091 5.47488 -0.417314 5.74157e-10 -6.65963e-10 9.45709e-10 -2.90554 0.965183 -0.102902 5.74154e-10 -6.65963e-10 9.45715e-10 -10.2786 0.731801 -0.0259123 5.7416e-10 -6.65959e-10 9.45709e-10 -2.22167 -0.733487 0.20892 -2.03217e-16 0.0 -3.88251e-19 14.0465 10.9488 0.564826 -0.00275833 7.40809 0.188581 -3.66436 -5.87784 -19.0571 2.03217e-16 0.0 3.88251e-19 9.82923 -33.8436 -0.14165 0.127069 24.9763 -0.295983 3.72609 -8.66989 13.2932
0.982086 83.2671 8.46089 -8.5365 3.0865 0.3911 9.66744 2.6554 9.65153 -0.701652 -1.75523 2.77475 3.59887 -0.106839 -1.10451 -6.3714 -3.69872 -3.36545 -0.0 0.0 0.0 -0.0 0.0 0.0 -1.1457e-13 8.94115e-14 1.28428e-13 79.1066 21.1549 -0.814258 -17.7593 -10.4302 33.4825 -0.15949 -11.3097 -1.61065 4.05503e-10 2.51914e-10 7.66733e-10 6.90259e-10 4.53641e-10 1.33207e-09 4.05514e-10 2.51909e-10 7.66713e-10 7.73091 5.47488 0.417314 4.0551e-10 2.51913e-10 7.66729e-10 2.90554 0.965183 0.102902 4.05514e-10 2.51913e-10 7.66738e-10 10.2786 0.731801 0.0259123 4.05498e-10 2.51921e-10 7.66741e-10 2.22167 -0.733487 -0.20892 -1.14597e-13 8.94133e-14 1.28275e-13 -84.8104 23.947 17.278 16.599 -9.25579 -30.9481 0.26547 -14.5113 2.08466 1.04285e-09 -3.94829e-10 5.94967e-10 1.79267e-09 -6.92354e-10 1.04072e-09 1.04284e-09 -3.94831e-10 5.94978e-10 -7.73091 5.47488 -0.417314 1.04285e-09 -3.9483e-10 5.94956e-10 -2.90554 0.965183 -0.102902 1.04285e-09 -3.94829e-10 5.94961e-10 -10.2786 0.731801 -0.0259123 1.04285e-09 -3.94826e-10 5.94956e-10 -2.22167 -0.733487 0.20892 -2.03217e-16 0.0 -3.88251e-19 13.9668 11.1443 0.663013 -0.00195823 7.17333 0.18619 -3.62384 -5.78303 -19.0459 2.03217e-16 0.0 3.88251e-19 9.72592 -33.7161 -0.229737 0.125941 24.8526 -0.296012 3.69565 -8.5768 13.2603
1.07308 83.2566 8.77554 -8.4931 3.0642 0.5616 9.57937 2.49833 9.73083 -0.6726 -1.81164 2.7944 3.58554 -0.0791225 -1.12349 -6.33324 -3.73009 -3.39796 -0.0 0.0 0.0 -0.0 0.0 0.0 -1.73236e-13 8.06806e-14 5.17617e-14 79.1778 21.0475 -0.866869 -17.6932 -10.3605 33.3361 -0.157776 -11.2496 -1.60188 1.35805e-09 -1.5977e-09 4.96564e-10 2.33987e-09 -2.75395e-09 8.70304e-10 1.35806e-09 -1.5977e-09 4.96542e-10 7.73091 5.47488 0.417314 1.35805e-09 -1.5977e-09 4.96559e-10 2.90554 0.965183 0.102902 1.35806e-09 -1.5977e-09 4.96566e-10 10.2786 0.731801 0.0259123 1.35805e-09 -1.59769e-09 4.9657e-10 2.22167 -0.733487 -0.20892 -1.7327e-13 8.06823e-14 5.16126e-14 -84.8184 23.8037 17.3573 16.5349 -9.19354 -30.8112 0.261652 -14.4087 2.06928 1.65176e-09 9.60004e-11 -4.56847e-11 2.85156e-09 1.60872e-10 -6.25812e-11 1.65175e-09 9.59967e-11 -4.56704e-11 -7.73091 5.47488 -0.417314 1.65176e-09 9.59988e-11 -4.56929e-11 -2.90554 0.965183 -0.102902 1.65176e-09 9.59988e-11 -4.56894e-11 -10.2786 0.731801 -0.0259123 1.65177e-09 9.6003e-11 -4.56933e-11 -2.22167 -0.733487 0.20892 -2.03217e-16 0.0 -3.88251e-19 13.8806 11.4427 0.763374 -0.000530542 6.72766 0.181404 -3.54048 -5.59486 -19.0107 2.03217e-16 0.0 3.88251e-19 9.62362 -33.6027 -0.29317 0.124315 24.674 -0.296923 3.66243 -8.3987 13.2922
1.17037 83.3172 9.09079 -8.4072 3.0695 0.7394 9.45919 2.34589 9.79307 -0.632989 -1.8787 2.80936 3.58069 -0.0508881 -1.13913 -6.30623 -3.76881 -3.42698 -0.0 0.0 0.0 -0.0 0.0 0.0 -2.27411e-13 7.02724e-14 -2.45091e-14 79.2509 20.9267 -0.917467 -17.6215 -10.2854 33.1772 -0.155891 -11.1832 -1.59217 2.28169e-09 -3.41381e-09 1.9539e-10 3.93995e-09 -5.90425e-09 3.54527e-10 2.2817e-09 -3.41381e-09 1.95367e-10 7.73091 5.47488 0.417314 2.28169e-09 -3.41381e-09 1.95384e-10 2.90554 0.965183 0.102902 2.2817e-09 -3.41381e-09 1.95389e-10 10.2786 0.731801 0.0259123 2.28168e-09 -3.41381e-09 1.95394e-10 2.22167 -0.733487 -0.20892 -2.27456e-13 7.02739e-14 -2.46536e-14 -84.8172 23.6471 17.4221 16.4637 -9.12496 -30.6587 0.257637 -14.3009 2.05312 2.20093e-09 5.79166e-10 -6.84942e-10 3.80724e-09 1.00108e-09 -1.16409e-09 2.2009e-09 5.7916e-10 -6.84925e-10 -7.73091 5.47488 -0.417314 2.20092e-09 5.79164e-10 -6.84947e-10 -2.90554 0.965183 -0.102902 2.20092e-09 5.79163e-10 -6.84945e-10 -10.2786 0.731801 -0.0259123 2.20093e-09 5.79167e-10 -6.84947e-10 -2.22167 -0.733487 0.20892 -2.03217e-16 0.0 -3.88251e-19 13.779 11.7366 0.842094 0.000827874 6.27761 0.17651 -3.44928 -5.38345 -18.9775 2.03217e-16 0.0 3.88251e-19 9.51089 -33.5116 -0.321301 0.122715 24.4898 -0.297245 3.62158 -8.18535 13.3243
1.27755 83.3277 9.39945 -8.2929 3.1148 0.9226 9.28894 2.21589 9.82025 -0.577156 -1.94791 2.81458 3.58022 -0.0438907 -1.1475 -6.29533 -3.81525 -3.44539 -0.0 0.0 0.0 -0.0 0.0 0.0 -2.59148e-13 6.53992e-14 -6.66923e-14 79.3125 20.7885 -0.9431 -17.5404 -10.201 32.9973 -0.153877 -11.112 -1.58177 2.81532e-09 -4.43834e-09 3.58767e-12 4.8646e-09 -7.68182e-09 2.55915e-11 2.81532e-09 -4.43834e-09 3.5654e-12 7.73091 5.47488 0.417314 2.81532e-09 -4.43834e-09 3.5813e-12 2.90554 0.965183 0.102902 2.81532e-09 -4.43834e-09 3.58528e-12 10.2786 0.731801 0.0259123 2.81531e-09 -4.43834e-09 3.59085e-12 2.22167 -0.733487 -0.20892 -2.592e-13 6.54005e-14 -6.68413e-14 -84.7963 23.4553 17.4417 16.376 -9.04137 -30.4706 0.2527 -14.168 2.03321 2.49036e-09 8.27308e-10 -1.03151e-09 4.31089e-09 1.43277e-09 -1.7614e-09 2.49033e-09 8.27302e-10 -1.0315e-09 -7.73091 5.47488 -0.417314 2.49036e-09 8.27305e-10 -1.03152e-09 -2.90554 0.965183 -0.102902 2.49036e-09 8.27304e-10 -1.03152e-09 -10.2786 0.731801 -0.0259123 2.49036e-09 8.27308e-10 -1.03152e-09 -2.22167 -0.733487 0.20892 -2.03217e-16 0.0 -3.88251e-19 13.6545 11.9186 0.87511 0.00154534 6.02972 0.173757 -3.38475 -5.21907 -18.9718 2.03217e-16 0.0 3.88251e-19 9.37623 -33.4512 -0.303495 0.121686 24.3497 -0.29551 3.56913 -7.98632 13.2921
